<svg width="134" height="134" viewBox="0 0 134 134" fill="none" xmlns="http://www.w3.org/2000/svg">
<g clip-path="url(#clip0)">
<path d="M120.1 13.2744V111.586C120.1 111.592 120.095 111.597 120.09 111.597H36.6694C30.7904 111.597 27.6375 113.428 27.6375 121.267C27.6375 132.666 11.4756 138.147 3.66406 130.336C1.40019 128.072 0 124.942 0 121.49V3.26102C0 1.46039 1.46039 0 3.26102 0H106.826C114.156 0 120.1 5.94361 120.1 13.2744Z" fill="#F0F7FF"/>
<path d="M120.1 13.2744V111.586C120.1 111.592 120.095 111.597 120.089 111.597H60.0488V0H106.826C114.156 0 120.1 5.94361 120.1 13.2744Z" fill="#DFE7F4"/>
<path d="M134 112.654V121.49C134 128.399 128.399 134 121.49 134H12.5103C19.4196 134 25.0204 128.399 25.0204 121.49V112.654C25.0204 110.626 26.6666 108.979 28.6976 108.979H130.323C132.354 108.979 134 110.626 134 112.654Z" fill="#DFE7F4"/>
<path d="M134 112.654V121.49C134 128.399 128.399 134 121.49 134H60.0488V108.979H130.323C132.354 108.979 134 110.626 134 112.654Z" fill="#C7CFE1"/>
<path d="M95.9958 27.0093C95.9958 29.1763 94.237 30.9351 92.0702 30.9351H28.03C25.8604 30.9351 24.1042 29.1763 24.1042 27.0093C24.1042 24.8397 25.8604 23.0835 28.03 23.0835H92.0702C94.237 23.0835 95.9958 24.8397 95.9958 27.0093Z" fill="#7ED8F6"/>
<path d="M95.9958 45.3297C95.9958 47.4967 94.237 49.2555 92.0702 49.2555H28.03C25.8604 49.2555 24.1042 47.4967 24.1042 45.3297C24.1042 43.16 25.8604 41.4039 28.03 41.4039H92.0702C94.237 41.4039 95.9958 43.16 95.9958 45.3297Z" fill="#7ED8F6"/>
<path d="M95.9958 63.65C95.9958 65.8168 94.237 67.5756 92.0702 67.5756H28.03C25.8604 67.5756 24.1042 65.8168 24.1042 63.65C24.1042 61.4801 25.8604 59.7244 28.03 59.7244H92.0702C94.237 59.7244 95.9958 61.4801 95.9958 63.65Z" fill="#7ED8F6"/>
<path d="M95.9958 81.9704C95.9958 84.1372 94.237 85.896 92.0702 85.896H28.03C25.8604 85.896 24.1042 84.1372 24.1042 81.9704C24.1042 79.8005 25.8604 78.0443 28.03 78.0443H92.0702C94.237 78.0443 95.9958 79.8005 95.9958 81.9704Z" fill="#7ED8F6"/>
<path d="M95.9958 81.9704C95.9958 84.1372 94.2371 85.896 92.0703 85.896H60.0488V78.0443H92.0703C94.2371 78.0443 95.9958 79.8005 95.9958 81.9704Z" fill="#6AA9FF"/>
<path d="M95.9958 63.65C95.9958 65.8168 94.2371 67.5756 92.0703 67.5756H60.0488V59.7244H92.0703C94.2371 59.7244 95.9958 61.4801 95.9958 63.65Z" fill="#6AA9FF"/>
<path d="M95.9958 45.3297C95.9958 47.4967 94.2371 49.2555 92.0703 49.2555H60.0488V41.4039H92.0703C94.2371 41.4039 95.9958 43.16 95.9958 45.3297Z" fill="#6AA9FF"/>
<path d="M92.0703 30.9351H60.0488V23.0835H92.0703C94.2371 23.0835 95.9958 24.8397 95.9958 27.0093C95.9958 29.1763 94.2371 30.9351 92.0703 30.9351Z" fill="#6AA9FF"/>
</g>
<defs>
<clipPath id="clip0">
<rect width="134" height="134" fill="white"/>
</clipPath>
</defs>
</svg>
