<svg width="134" height="134" viewBox="0 0 134 134" fill="none" xmlns="http://www.w3.org/2000/svg">
<path d="M105.781 26.9543L114.235 67.3979L91.9104 55.1861L105.781 26.9543Z" fill="#616D77"/>
<path d="M114.235 67.3979L109.799 103.955L91.9104 55.1862L114.235 67.3979Z" fill="#505C63"/>
<path d="M91.9103 55.1862L109.799 103.955L59.7163 91.3662L46.5938 74.6552L91.9103 55.1862Z" fill="#798795"/>
<path d="M109.799 103.955L96.1161 126.434L58.7793 115.151L59.7163 91.3662L109.799 103.955Z" fill="#616D77"/>
<path d="M105.781 26.9544L91.9104 55.1862L76.8826 26.8576L76.9399 2.87891L105.781 26.9544Z" fill="#8E99A3"/>
<path d="M96.116 126.434L53.2309 131.121L28.3545 118.663L58.7792 115.151L96.116 126.434Z" fill="#505C63"/>
<path d="M76.8825 26.8577L91.9103 55.1862L46.5938 74.6553L47.7532 51.3596L76.8825 26.8577Z" fill="#616D77"/>
<path d="M76.9399 2.87891L76.8826 26.8576L52.4956 21.0134L76.9399 2.87891Z" fill="#93A1AD"/>
<path d="M76.8824 26.8576L47.7532 51.3596L28.4331 31.2179L52.4955 21.0134L76.8824 26.8576Z" fill="#798795"/>
<path d="M46.5937 74.6553L59.7162 91.3662L58.7792 115.151L28.3545 118.663L19.7649 87.6365L46.5937 74.6553Z" fill="#8E99A3"/>
<path d="M28.433 31.2179L47.7531 51.3596L46.5937 74.6553L19.7649 87.6366L28.433 31.2179Z" fill="#93A1AD"/>
<path d="M40.6089 117.249L28.3545 118.663L53.2309 131.121L63.7271 129.974L40.6089 117.249Z" fill="#414A4F"/>
<path d="M76.9399 2.87891L52.4956 21.0134L63.2227 23.584L76.9141 13.8099L76.9399 2.87891Z" fill="#748089"/>
<path d="M35.9355 39.0396L28.433 31.2179L19.7649 87.6366L30.8652 82.2654L35.9355 39.0396Z" fill="#79848C"/>
<path d="M63.2225 23.584L52.4954 21.0134L28.4331 31.2179L35.9355 39.0396L63.2225 23.584Z" fill="#5E6A75"/>
<path d="M19.7649 87.6365L28.3545 118.663L40.609 117.249L30.8652 82.2654L19.7649 87.6365Z" fill="#747C82"/>
<path d="M31.8143 46.4326C31.7274 46.4326 31.6406 46.4254 31.5549 46.4112C31.1442 46.3429 30.7774 46.1143 30.5352 45.7756C30.2931 45.437 30.1953 45.016 30.2633 44.6053L30.4204 43.6631C30.4892 43.2529 30.7181 42.8868 31.0567 42.6452C31.3952 42.4035 31.8158 42.306 32.2261 42.3741C32.6364 42.4422 33.003 42.6703 33.2453 43.0084C33.4876 43.3465 33.5859 43.7669 33.5186 44.1774L33.3616 45.1196C33.3007 45.4861 33.1118 45.8192 32.8285 46.0596C32.5452 46.3 32.1858 46.4322 31.8143 46.4326Z" fill="#F4F8FC"/>
<path d="M28.0762 68.9506C27.9895 68.9501 27.903 68.9429 27.8174 68.9287C27.4067 68.8607 27.0398 68.6318 26.7976 68.2933C26.5553 67.9547 26.4574 67.5339 26.5256 67.1228L29.4332 49.6067C29.5034 49.1977 29.7327 48.8331 30.0708 48.5926C30.409 48.3521 30.8286 48.2553 31.2379 48.3232C31.6473 48.3911 32.0132 48.6183 32.2555 48.9551C32.4979 49.2919 32.5971 49.7109 32.5315 50.1207L29.6235 67.6375C29.5626 68.0039 29.3738 68.3369 29.0905 68.5775C28.8072 68.8176 28.4478 68.9501 28.0762 68.9506Z" fill="#F4F8FC"/>
</svg>
