<svg width="134" height="134" viewBox="0 0 134 134" fill="none" xmlns="http://www.w3.org/2000/svg">
<g clip-path="url(#clip0)">
<path d="M67.007 91.7449L63.8007 96.1948L43.7449 81.6776L102.14 0.00708008C113.237 8.00125 115.751 23.4784 107.754 34.5734L67.007 91.7449Z" fill="#D0D0D9"/>
<path d="M102.14 0.00708008L97.5409 6.43908C103.05 14.7754 103.158 25.9864 96.9689 34.5734L56.5227 90.9262L63.8008 96.1943L67.0072 91.7449L107.754 34.5737C115.751 23.4784 113.237 8.00125 102.14 0.00708008Z" fill="#BFBFC7"/>
<path d="M69.0643 94.6193L89.1587 80.1438L31.5003 0.00708008C20.4033 8.00125 17.8897 23.4784 25.8865 34.5734L69.0643 94.6193Z" fill="#EDEDF8"/>
<path d="M31.5002 0.00708008C29.0246 1.7906 26.9774 3.947 25.3777 6.34335L82.8845 86.2519L69.7312 95.5472L89.9576 81.2538L31.5002 0.00708008Z" fill="#DADAE3"/>
<path d="M129.438 95.7059C121.753 85.0428 106.984 82.5039 96.1944 89.8841L89.1584 80.1437L69.0645 94.6197L87.9158 120.753L90.2243 123.955C98.0272 134.781 113.131 137.233 123.96 129.432C134.788 121.631 137.241 106.532 129.438 95.7059ZM117.789 120.871C111.719 125.243 103.253 123.869 98.8794 117.801C94.5062 111.733 95.8807 103.269 101.95 98.8966C108.02 94.5243 116.486 95.8988 120.859 101.966C125.233 108.034 123.858 116.498 117.789 120.871Z" fill="#FE79A9"/>
<path d="M129.438 95.706C123.584 87.5832 113.619 84.181 104.434 86.2803C109.965 87.5426 115.076 90.7429 118.654 95.706C121.033 99.0078 122.454 102.707 122.979 106.476C123.578 108.78 123.551 111.184 122.937 113.443C121.998 119.643 118.666 125.477 113.174 129.432C110.477 131.376 107.513 132.682 104.463 133.382C110.992 134.866 118.101 133.653 123.959 129.432C134.788 121.631 137.241 106.532 129.438 95.706Z" fill="#F4549B"/>
<path d="M44.8414 80.1437L37.8058 89.8835C27.0159 82.5034 12.2473 85.0428 4.56188 95.7054C-3.24113 106.532 -0.788149 121.631 10.0405 129.432C20.8692 137.233 35.9732 134.781 43.7762 123.955L46.0844 120.753L64.9362 94.6192L44.8414 80.1437ZM35.1206 117.801C30.7472 123.869 22.2812 125.243 16.2115 120.871C10.1419 116.498 8.7671 108.035 13.1406 101.967C17.5141 95.8988 25.9801 94.5243 32.0497 98.8971C38.1193 103.269 39.4941 111.733 35.1206 117.801Z" fill="#FE79A9"/>
<path d="M57.6469 89.3684L38.9943 115.226L36.6861 118.428C29.5989 128.261 16.4896 131.184 6.03027 125.793C7.20475 127.124 8.53907 128.351 10.0406 129.432C20.8693 137.233 35.9732 134.781 43.7762 123.955L46.0844 120.753L64.9362 94.6198L57.6469 89.3684Z" fill="#F4549B"/>
<path d="M67.0001 75.1553C69.2827 75.1553 71.1328 73.3051 71.1328 71.0226C71.1328 68.7405 69.2827 66.8899 67.0001 66.8899C64.7175 66.8899 62.8674 68.7405 62.8674 71.0226C62.8674 73.3051 64.7175 75.1553 67.0001 75.1553Z" fill="#797A84"/>
</g>
<defs>
<clipPath id="clip0">
<rect width="134" height="134" fill="white"/>
</clipPath>
</defs>
</svg>
